#!OML:ASF G:\JayActor3\Patient Classification 1\Patient 1\Session 6\male.ASF
:FULLY-SPECIFIED
:DEGREES
1598
root 11.1541 14.7475 -2.95432 38.4419 -55.1043 10.9003
lowerback 52.9588 -2.20301 12.4705
upperback 5.27968 3.67928 0.397317
thorax -14.261 0.774929 -6.86823
lowerneck 2.22695 -2.83396 -2.28723
upperneck -49.7184 -7.64632 -1.18154
head -19.9082 -3.74774 1.45494
rclavicle 8.26944e-014 2.3059e-014
rhumerus 47.6367 -5.1927 -82.1213
rradius 33.9863
rwrist 30.3371
rhand -63.0261 24.088
rfingers 7.12502
rthumb -35.0276 -2.4616
lclavicle 8.26944e-014 2.3059e-014
lhumerus -45.2602 14.4666 77.2234
lradius 91.9154
lwrist -3.52384
lhand -54.5477 -36.5756
lfingers 7.12502
lthumb -26.9475 -8.47706
rfemur -98.7495 -9.9151 26.8025
rtibia 71.3273
rfoot -21.9322 -10.6496
rtoes 9.44214
lfemur -88.5312 -4.63546 -27.0693
ltibia 59.7773
lfoot -16.1838 0.0833581
ltoes 6.26396
1599
root 11.1499 14.7509 -2.95671 38.5921 -55.2354 10.7311
lowerback 52.8167 -2.08599 12.3056
upperback 5.21128 3.71325 0.372433
thorax -14.3382 0.788807 -6.84943
lowerneck 2.46359 -2.89795 -2.20628
upperneck -49.8111 -7.72563 -1.07418
head -20.0388 -3.80181 1.52217
rclavicle -2.22639e-014 -5.91881e-014
rhumerus 47.0264 -5.23775 -82.898
rradius 34.5838
rwrist 30.0287
rhand -63.2087 24.0381
rfingers 7.12502
rthumb -35.2009 -2.47077
lclavicle -2.22639e-014 -5.91881e-014
lhumerus -45.1867 14.6589 77.1787
lradius 91.7316
lwrist -3.52876
lhand -54.6111 -36.6095
lfingers 7.12502
lthumb -27.0081 -8.52039
rfemur -98.705 -9.76519 26.8788
rtibia 71.2381
rfoot -21.8743 -10.6038
rtoes 9.53818
lfemur -88.5545 -4.52909 -26.9462
ltibia 59.7932
lfoot -16.2218 0.210136
ltoes 6.12088
1600
root 11.1454 14.7549 -2.95928 38.734 -55.3651 10.567
lowerback 52.6829 -1.96843 12.1368
upperback 5.14481 3.74738 0.349772
thorax -14.4143 0.803116 -6.82584
lowerneck 2.67323 -2.96111 -2.12213
upperneck -49.8903 -7.80007 -0.968831
head -20.1527 -3.85535 1.58599
rclavicle 2.8625e-014 3.06128e-014
rhumerus 46.4135 -5.27869 -83.6669
rradius 35.1976
rwrist 29.7312
rhand -63.5002 23.9873
rfingers 7.12502
rthumb -35.4773 -2.45599
lclavicle 2.8625e-014 3.06128e-014
lhumerus -45.0698 14.855 77.1427
lradius 91.536
lwrist -3.53091
lhand -54.6811 -36.6308
lfingers 7.12502
lthumb -27.0751 -8.55206
rfemur -98.6494 -9.61228 26.9408
rtibia 71.1443
rfoot -21.8137 -10.5658
rtoes 9.65949
lfemur -88.5661 -4.41775 -26.8343
ltibia 59.8007
lfoot -16.258 0.322823
ltoes 6.00485
1601
root 11.1408 14.7594 -2.96207 38.8647 -55.4899 10.411
lowerback 52.5583 -1.85465 11.9678
upperback 5.08051 3.77858 0.328386
thorax -14.4891 0.816507 -6.79867
lowerneck 2.84654 -3.02295 -2.0486
upperneck -49.9496 -7.86567 -0.856313
head -20.2402 -3.90554 1.65179
rclavicle 9.54166e-015 3.47873e-014
rhumerus 45.7996 -5.3122 -84.4292
rradius 35.8282
rwrist 29.4406
rhand -63.8239 24.0235
rfingers 7.12502
rthumb -35.7841 -2.3458
lclavicle 9.54166e-015 3.47873e-014
lhumerus -44.9078 15.0565 77.1167
lradius 91.329
lwrist -3.51986
lhand -54.7523 -36.6557
lfingers 7.12502
lthumb -27.1432 -8.58755
rfemur -98.5814 -9.45839 26.9867
rtibia 71.0459
rfoot -21.7588 -10.5402
rtoes 9.78106
lfemur -88.5639 -4.30531 -26.7308
ltibia 59.7975
lfoot -16.2918 0.420545
ltoes 5.92595
1602
root 11.1359 14.7645 -2.96487 38.9716 -55.6093 10.275
lowerback 52.4464 -1.74759 11.801
upperback 5.01787 3.805 0.307436
thorax -14.5636 0.828074 -6.76899
lowerneck 2.99086 -3.08264 -1.98675
upperneck -49.9962 -7.92365 -0.738831
head -20.3087 -3.95214 1.71938
rclavicle -6.36111e-015 1.36167e-014
rhumerus 45.1783 -5.33698 -85.1761
rradius 36.4873
rwrist 29.1563
rhand -64.1027 24.1234
rfingers 7.12502
rthumb -36.0483 -2.18124
lclavicle -6.36111e-015 1.36167e-014
lhumerus -44.7031 15.2596 77.1047
lradius 91.1121
lwrist -3.50051
lhand -54.8297 -36.5926
lfingers 7.12502
lthumb -27.2173 -8.53603
rfemur -98.4981 -9.30952 27.0089
rtibia 70.9437
rfoot -21.7196 -10.535
rtoes 9.8561
lfemur -88.5416 -4.19779 -26.6422
ltibia 59.781
lfoot -16.325 0.505493
ltoes 5.88063
1603
root 11.131 14.77 -2.9677 39.0646 -55.7198 10.1545
lowerback 52.3402 -1.64853 11.6403
upperback 4.95584 3.82674 0.287415
thorax -14.6379 0.837688 -6.73827
lowerneck 3.11055 -3.13909 -1.93846
upperneck -50.0347 -7.9735 -0.616417
head -20.3625 -3.99438 1.78926
rclavicle -4.77083e-014 4.42793e-014
rhumerus 44.5452 -5.3483 -85.9023
rradius 37.1796
rwrist 28.8809
rhand -64.2811 24.252
rfingers 7.12502
rthumb -36.2172 -2.0109
lclavicle -4.77083e-014 4.42793e-014
lhumerus -44.4589 15.4609 77.1085
lradius 90.9027
lwrist -3.43052
lhand -54.8838 -36.4038
lfingers 7.12502
lthumb -27.269 -8.35537
rfemur -98.4078 -9.16563 27.0134
rtibia 70.8383
rfoot -21.6981 -10.5432
rtoes 9.90519
lfemur -88.509 -4.0983 -26.5619
ltibia 59.7526
lfoot -16.3553 0.582178
ltoes 5.84068
1604
root 11.126 14.7756 -2.97061 39.1531 -55.8191 10.043
lowerback 52.2342 -1.5564 11.4887
upperback 4.89398 3.84648 0.270935
thorax -14.7112 0.846319 -6.70629
lowerneck 3.21346 -3.19105 -1.9035
upperneck -50.0711 -8.01677 -0.493979
head -20.4093 -4.03196 1.85978
rclavicle 6.36111e-015 -4.55652e-014
rhumerus 43.8949 -5.34518 -86.6063
rradius 37.9094
rwrist 28.6284
rhand -64.3524 24.3277
rfingers 7.12502
rthumb -36.2847 -1.91839
lclavicle 6.36111e-015 -4.55652e-014
lhumerus -44.1782 15.6576 77.131
lradius 90.6793
lwrist -3.3647
lhand -54.951 -36.1817
lfingers 7.12502
lthumb -27.3333 -8.14341
rfemur -98.3158 -9.02607 27.0085
rtibia 70.7287
rfoot -21.6789 -10.5577
rtoes 9.95937
lfemur -88.4724 -4.00482 -26.4873
ltibia 59.7124
lfoot -16.3789 0.649294
ltoes 5.79368
1605
root 11.1213 14.7814 -2.97349 39.2436 -55.9057 9.93821
lowerback 52.1196 -1.47116 11.349
upperback 4.83421 3.8646 0.258773
thorax -14.7798 0.854341 -6.67367
lowerneck 3.30557 -3.23609 -1.87871
upperneck -50.1105 -8.05199 -0.376742
head -20.4554 -4.06391 1.92804
rclavicle -3.49861e-014 1.17283e-014
rhumerus 43.2286 -5.32938 -87.2858
rradius 38.6729
rwrist 28.4093
rhand -64.3749 24.3945
rfingers 7.12502
rthumb -36.306 -1.84627
lclavicle -3.49861e-014 1.17283e-014
lhumerus -43.8585 15.8468 77.1771
lradius 90.4426
lwrist -3.30721
lhand -55.0207 -35.9532
lfingers 7.12502
lthumb -27.4 -7.92539
rfemur -98.2281 -8.89284 26.9992
rtibia 70.6148
rfoot -21.6615 -10.5762
rtoes 10.034
lfemur -88.4384 -3.91808 -26.4176
ltibia 59.6618
lfoot -16.3952 0.704251
ltoes 5.75991
1606
root 11.1169 14.7877 -2.97653 39.3485 -55.9828 9.83027
lowerback 51.9911 -1.38959 11.2193
upperback 4.77718 3.88318 0.251172
thorax -14.8421 0.862775 -6.64043
lowerneck 3.38524 -3.27449 -1.85898
upperneck -50.1499 -8.08111 -0.270393
head -20.4988 -4.09137 1.99026
rclavicle -7.95139e-014 -1.56543e-015
rhumerus 42.546 -5.29975 -87.9406
rradius 39.467
rwrist 28.2255
rhand -64.4017 24.4275
rfingers 7.12502
rthumb -36.3314 -1.8069
lclavicle -7.95139e-014 -1.56543e-015
lhumerus -43.4956 16.0243 77.2431
lradius 90.182
lwrist -3.26886
lhand -55.102 -35.7728
lfingers 7.12502
lthumb -27.4777 -7.75739
rfemur -98.1457 -8.75493 26.9835
rtibia 70.4933
rfoot -21.646 -10.6066
rtoes 10.112
lfemur -88.4122 -3.8345 -26.3464
ltibia 59.6002
lfoot -16.4042 0.752112
ltoes 5.72566
